<svg id="visual" viewBox="0 0 900 200" width="900" height="200" xmlns="http://www.w3.org/2000/svg" xmlns:xlink="http://www.w3.org/1999/xlink" version="1.1"><rect x="0" y="0" width="900" height="200" fill="#001220"></rect><path d="M0 61L10.7 60C21.3 59 42.7 57 64.2 50.3C85.7 43.7 107.3 32.3 128.8 33C150.3 33.7 171.7 46.3 193 48.5C214.3 50.7 235.7 42.3 257 41C278.3 39.7 299.7 45.3 321.2 50.5C342.7 55.7 364.3 60.3 385.8 61.7C407.3 63 428.7 61 450 57.3C471.3 53.7 492.7 48.3 514.2 47.5C535.7 46.7 557.3 50.3 578.8 52.3C600.3 54.3 621.7 54.7 643 56.8C664.3 59 685.7 63 707 59.3C728.3 55.7 749.7 44.3 771.2 38.7C792.7 33 814.3 33 835.8 36.8C857.3 40.7 878.7 48.3 889.3 52.2L900 56L900 201L889.3 201C878.7 201 857.3 201 835.8 201C814.3 201 792.7 201 771.2 201C749.7 201 728.3 201 707 201C685.7 201 664.3 201 643 201C621.7 201 600.3 201 578.8 201C557.3 201 535.7 201 514.2 201C492.7 201 471.3 201 450 201C428.7 201 407.3 201 385.8 201C364.3 201 342.7 201 321.2 201C299.7 201 278.3 201 257 201C235.7 201 214.3 201 193 201C171.7 201 150.3 201 128.8 201C107.3 201 85.7 201 64.2 201C42.7 201 21.3 201 10.7 201L0 201Z" fill="#ff0066"></path><path d="M0 47L10.7 51.7C21.3 56.3 42.7 65.7 64.2 66C85.7 66.3 107.3 57.7 128.8 55.3C150.3 53 171.7 57 193 60.5C214.3 64 235.7 67 257 70.3C278.3 73.7 299.7 77.3 321.2 77C342.7 76.7 364.3 72.3 385.8 65C407.3 57.7 428.7 47.3 450 46C471.3 44.7 492.7 52.3 514.2 53.7C535.7 55 557.3 50 578.8 45C600.3 40 621.7 35 643 38.5C664.3 42 685.7 54 707 60.8C728.3 67.7 749.7 69.3 771.2 65.3C792.7 61.3 814.3 51.7 835.8 46.7C857.3 41.7 878.7 41.3 889.3 41.2L900 41L900 201L889.3 201C878.7 201 857.3 201 835.8 201C814.3 201 792.7 201 771.2 201C749.7 201 728.3 201 707 201C685.7 201 664.3 201 643 201C621.7 201 600.3 201 578.8 201C557.3 201 535.7 201 514.2 201C492.7 201 471.3 201 450 201C428.7 201 407.3 201 385.8 201C364.3 201 342.7 201 321.2 201C299.7 201 278.3 201 257 201C235.7 201 214.3 201 193 201C171.7 201 150.3 201 128.8 201C107.3 201 85.7 201 64.2 201C42.7 201 21.3 201 10.7 201L0 201Z" fill="#fe0073"></path><path d="M0 80L10.7 82C21.3 84 42.7 88 64.2 87.5C85.7 87 107.3 82 128.8 80.2C150.3 78.3 171.7 79.7 193 79.5C214.3 79.3 235.7 77.7 257 75.7C278.3 73.7 299.7 71.3 321.2 68C342.7 64.7 364.3 60.3 385.8 63.3C407.3 66.3 428.7 76.7 450 79C471.3 81.3 492.7 75.7 514.2 75.2C535.7 74.7 557.3 79.3 578.8 75.8C600.3 72.3 621.7 60.7 643 55.5C664.3 50.3 685.7 51.7 707 57.5C728.3 63.3 749.7 73.7 771.2 73.8C792.7 74 814.3 64 835.8 62.5C857.3 61 878.7 68 889.3 71.5L900 75L900 201L889.3 201C878.7 201 857.3 201 835.8 201C814.3 201 792.7 201 771.2 201C749.7 201 728.3 201 707 201C685.7 201 664.3 201 643 201C621.7 201 600.3 201 578.8 201C557.3 201 535.7 201 514.2 201C492.7 201 471.3 201 450 201C428.7 201 407.3 201 385.8 201C364.3 201 342.7 201 321.2 201C299.7 201 278.3 201 257 201C235.7 201 214.3 201 193 201C171.7 201 150.3 201 128.8 201C107.3 201 85.7 201 64.2 201C42.7 201 21.3 201 10.7 201L0 201Z" fill="#fb0080"></path><path d="M0 69L10.7 70.3C21.3 71.7 42.7 74.3 64.2 77.5C85.7 80.7 107.3 84.3 128.8 85.3C150.3 86.3 171.7 84.7 193 84.3C214.3 84 235.7 85 257 83C278.3 81 299.7 76 321.2 78.3C342.7 80.7 364.3 90.3 385.8 95.3C407.3 100.3 428.7 100.7 450 94C471.3 87.3 492.7 73.7 514.2 69C535.7 64.3 557.3 68.7 578.8 72.8C600.3 77 621.7 81 643 81.3C664.3 81.7 685.7 78.3 707 81.2C728.3 84 749.7 93 771.2 91.2C792.7 89.3 814.3 76.7 835.8 76.7C857.3 76.7 878.7 89.3 889.3 95.7L900 102L900 201L889.3 201C878.7 201 857.3 201 835.8 201C814.3 201 792.7 201 771.2 201C749.7 201 728.3 201 707 201C685.7 201 664.3 201 643 201C621.7 201 600.3 201 578.8 201C557.3 201 535.7 201 514.2 201C492.7 201 471.3 201 450 201C428.7 201 407.3 201 385.8 201C364.3 201 342.7 201 321.2 201C299.7 201 278.3 201 257 201C235.7 201 214.3 201 193 201C171.7 201 150.3 201 128.8 201C107.3 201 85.7 201 64.2 201C42.7 201 21.3 201 10.7 201L0 201Z" fill="#f6008e"></path><path d="M0 92L10.7 96.5C21.3 101 42.7 110 64.2 113.8C85.7 117.7 107.3 116.3 128.8 109.2C150.3 102 171.7 89 193 88C214.3 87 235.7 98 257 104.8C278.3 111.7 299.7 114.3 321.2 112.8C342.7 111.3 364.3 105.7 385.8 101C407.3 96.3 428.7 92.7 450 90.5C471.3 88.3 492.7 87.7 514.2 86.7C535.7 85.7 557.3 84.3 578.8 87.8C600.3 91.3 621.7 99.7 643 98.8C664.3 98 685.7 88 707 89.2C728.3 90.3 749.7 102.7 771.2 102.3C792.7 102 814.3 89 835.8 84C857.3 79 878.7 82 889.3 83.5L900 85L900 201L889.3 201C878.7 201 857.3 201 835.8 201C814.3 201 792.7 201 771.2 201C749.7 201 728.3 201 707 201C685.7 201 664.3 201 643 201C621.7 201 600.3 201 578.8 201C557.3 201 535.7 201 514.2 201C492.7 201 471.3 201 450 201C428.7 201 407.3 201 385.8 201C364.3 201 342.7 201 321.2 201C299.7 201 278.3 201 257 201C235.7 201 214.3 201 193 201C171.7 201 150.3 201 128.8 201C107.3 201 85.7 201 64.2 201C42.7 201 21.3 201 10.7 201L0 201Z" fill="#f0009b"></path><path d="M0 115L10.7 115C21.3 115 42.7 115 64.2 112.3C85.7 109.7 107.3 104.3 128.8 102C150.3 99.7 171.7 100.3 193 102.5C214.3 104.7 235.7 108.3 257 108.7C278.3 109 299.7 106 321.2 105.5C342.7 105 364.3 107 385.8 105.8C407.3 104.7 428.7 100.3 450 99.8C471.3 99.3 492.7 102.7 514.2 102C535.7 101.3 557.3 96.7 578.8 98.3C600.3 100 621.7 108 643 112.3C664.3 116.7 685.7 117.3 707 114.8C728.3 112.3 749.7 106.7 771.2 106.5C792.7 106.3 814.3 111.7 835.8 111.7C857.3 111.7 878.7 106.3 889.3 103.7L900 101L900 201L889.3 201C878.7 201 857.3 201 835.8 201C814.3 201 792.7 201 771.2 201C749.7 201 728.3 201 707 201C685.7 201 664.3 201 643 201C621.7 201 600.3 201 578.8 201C557.3 201 535.7 201 514.2 201C492.7 201 471.3 201 450 201C428.7 201 407.3 201 385.8 201C364.3 201 342.7 201 321.2 201C299.7 201 278.3 201 257 201C235.7 201 214.3 201 193 201C171.7 201 150.3 201 128.8 201C107.3 201 85.7 201 64.2 201C42.7 201 21.3 201 10.7 201L0 201Z" fill="#e800a9"></path><path d="M0 110L10.7 115C21.3 120 42.7 130 64.2 129.7C85.7 129.3 107.3 118.7 128.8 116.3C150.3 114 171.7 120 193 125.5C214.3 131 235.7 136 257 135C278.3 134 299.7 127 321.2 123C342.7 119 364.3 118 385.8 119.3C407.3 120.7 428.7 124.3 450 126.8C471.3 129.3 492.7 130.7 514.2 128.3C535.7 126 557.3 120 578.8 121C600.3 122 621.7 130 643 131.8C664.3 133.7 685.7 129.3 707 126C728.3 122.7 749.7 120.3 771.2 122C792.7 123.7 814.3 129.3 835.8 129.3C857.3 129.3 878.7 123.7 889.3 120.8L900 118L900 201L889.3 201C878.7 201 857.3 201 835.8 201C814.3 201 792.7 201 771.2 201C749.7 201 728.3 201 707 201C685.7 201 664.3 201 643 201C621.7 201 600.3 201 578.8 201C557.3 201 535.7 201 514.2 201C492.7 201 471.3 201 450 201C428.7 201 407.3 201 385.8 201C364.3 201 342.7 201 321.2 201C299.7 201 278.3 201 257 201C235.7 201 214.3 201 193 201C171.7 201 150.3 201 128.8 201C107.3 201 85.7 201 64.2 201C42.7 201 21.3 201 10.7 201L0 201Z" fill="#dd00b7"></path><path d="M0 135L10.7 136.2C21.3 137.3 42.7 139.7 64.2 139.2C85.7 138.7 107.3 135.3 128.8 135.2C150.3 135 171.7 138 193 139.3C214.3 140.7 235.7 140.3 257 142.3C278.3 144.3 299.7 148.7 321.2 147.7C342.7 146.7 364.3 140.3 385.8 135.3C407.3 130.3 428.7 126.7 450 129.2C471.3 131.7 492.7 140.3 514.2 143.7C535.7 147 557.3 145 578.8 145.2C600.3 145.3 621.7 147.7 643 147C664.3 146.3 685.7 142.7 707 142.8C728.3 143 749.7 147 771.2 147.2C792.7 147.3 814.3 143.7 835.8 139.7C857.3 135.7 878.7 131.3 889.3 129.2L900 127L900 201L889.3 201C878.7 201 857.3 201 835.8 201C814.3 201 792.7 201 771.2 201C749.7 201 728.3 201 707 201C685.7 201 664.3 201 643 201C621.7 201 600.3 201 578.8 201C557.3 201 535.7 201 514.2 201C492.7 201 471.3 201 450 201C428.7 201 407.3 201 385.8 201C364.3 201 342.7 201 321.2 201C299.7 201 278.3 201 257 201C235.7 201 214.3 201 193 201C171.7 201 150.3 201 128.8 201C107.3 201 85.7 201 64.2 201C42.7 201 21.3 201 10.7 201L0 201Z" fill="#ce00c7"></path><path d="M0 161L10.7 160.2C21.3 159.3 42.7 157.7 64.2 155.3C85.7 153 107.3 150 128.8 149.3C150.3 148.7 171.7 150.3 193 149.5C214.3 148.7 235.7 145.3 257 145C278.3 144.7 299.7 147.3 321.2 151.2C342.7 155 364.3 160 385.8 160.3C407.3 160.7 428.7 156.3 450 156.8C471.3 157.3 492.7 162.7 514.2 165C535.7 167.3 557.3 166.7 578.8 166.7C600.3 166.7 621.7 167.3 643 163.3C664.3 159.3 685.7 150.7 707 146.2C728.3 141.7 749.7 141.3 771.2 144.8C792.7 148.3 814.3 155.7 835.8 159.2C857.3 162.7 878.7 162.3 889.3 162.2L900 162L900 201L889.3 201C878.7 201 857.3 201 835.8 201C814.3 201 792.7 201 771.2 201C749.7 201 728.3 201 707 201C685.7 201 664.3 201 643 201C621.7 201 600.3 201 578.8 201C557.3 201 535.7 201 514.2 201C492.7 201 471.3 201 450 201C428.7 201 407.3 201 385.8 201C364.3 201 342.7 201 321.2 201C299.7 201 278.3 201 257 201C235.7 201 214.3 201 193 201C171.7 201 150.3 201 128.8 201C107.3 201 85.7 201 64.2 201C42.7 201 21.3 201 10.7 201L0 201Z" fill="#b800d9"></path><path d="M0 174L10.7 174.3C21.3 174.7 42.7 175.3 64.2 174.7C85.7 174 107.3 172 128.8 169.8C150.3 167.7 171.7 165.3 193 163.2C214.3 161 235.7 159 257 161.3C278.3 163.7 299.7 170.3 321.2 173.5C342.7 176.7 364.3 176.3 385.8 176.7C407.3 177 428.7 178 450 175.8C471.3 173.7 492.7 168.3 514.2 164.5C535.7 160.7 557.3 158.3 578.8 158.2C600.3 158 621.7 160 643 161.2C664.3 162.3 685.7 162.7 707 161.5C728.3 160.3 749.7 157.7 771.2 156.5C792.7 155.3 814.3 155.7 835.8 156.2C857.3 156.7 878.7 157.3 889.3 157.7L900 158L900 201L889.3 201C878.7 201 857.3 201 835.8 201C814.3 201 792.7 201 771.2 201C749.7 201 728.3 201 707 201C685.7 201 664.3 201 643 201C621.7 201 600.3 201 578.8 201C557.3 201 535.7 201 514.2 201C492.7 201 471.3 201 450 201C428.7 201 407.3 201 385.8 201C364.3 201 342.7 201 321.2 201C299.7 201 278.3 201 257 201C235.7 201 214.3 201 193 201C171.7 201 150.3 201 128.8 201C107.3 201 85.7 201 64.2 201C42.7 201 21.3 201 10.7 201L0 201Z" fill="#9800ec"></path><path d="M0 189L10.7 188C21.3 187 42.7 185 64.2 184.7C85.7 184.3 107.3 185.7 128.8 186.7C150.3 187.7 171.7 188.3 193 187C214.3 185.7 235.7 182.3 257 181.2C278.3 180 299.7 181 321.2 182.7C342.7 184.3 364.3 186.7 385.8 188.2C407.3 189.7 428.7 190.3 450 187.3C471.3 184.3 492.7 177.7 514.2 175.7C535.7 173.7 557.3 176.3 578.8 178.3C600.3 180.3 621.7 181.7 643 183.3C664.3 185 685.7 187 707 186.5C728.3 186 749.7 183 771.2 181.3C792.7 179.7 814.3 179.3 835.8 178.7C857.3 178 878.7 177 889.3 176.5L900 176L900 201L889.3 201C878.7 201 857.3 201 835.8 201C814.3 201 792.7 201 771.2 201C749.7 201 728.3 201 707 201C685.7 201 664.3 201 643 201C621.7 201 600.3 201 578.8 201C557.3 201 535.7 201 514.2 201C492.7 201 471.3 201 450 201C428.7 201 407.3 201 385.8 201C364.3 201 342.7 201 321.2 201C299.7 201 278.3 201 257 201C235.7 201 214.3 201 193 201C171.7 201 150.3 201 128.8 201C107.3 201 85.7 201 64.2 201C42.7 201 21.3 201 10.7 201L0 201Z" fill="#6600ff"></path></svg>