<svg id="visual" viewBox="0 0 960 300" width="960" height="300" xmlns="http://www.w3.org/2000/svg" xmlns:xlink="http://www.w3.org/1999/xlink" version="1.1"><rect x="0" y="0" width="960" height="300" fill="#001220"></rect><path d="M0 197L13.3 199.2C26.7 201.3 53.3 205.7 80 206.7C106.7 207.7 133.3 205.3 160 200.2C186.7 195 213.3 187 240 185.7C266.7 184.3 293.3 189.7 320 193.3C346.7 197 373.3 199 400 197.8C426.7 196.7 453.3 192.3 480 189.2C506.7 186 533.3 184 560 183.5C586.7 183 613.3 184 640 188.5C666.7 193 693.3 201 720 201.7C746.7 202.3 773.3 195.7 800 196.3C826.7 197 853.3 205 880 207.2C906.7 209.3 933.3 205.7 946.7 203.8L960 202L960 301L946.7 301C933.3 301 906.7 301 880 301C853.3 301 826.7 301 800 301C773.3 301 746.7 301 720 301C693.3 301 666.7 301 640 301C613.3 301 586.7 301 560 301C533.3 301 506.7 301 480 301C453.3 301 426.7 301 400 301C373.3 301 346.7 301 320 301C293.3 301 266.7 301 240 301C213.3 301 186.7 301 160 301C133.3 301 106.7 301 80 301C53.3 301 26.7 301 13.3 301L0 301Z" fill="#fa699e"></path><path d="M0 217L13.3 216C26.7 215 53.3 213 80 211C106.7 209 133.3 207 160 204.7C186.7 202.3 213.3 199.7 240 202.3C266.7 205 293.3 213 320 216C346.7 219 373.3 217 400 214.5C426.7 212 453.3 209 480 208C506.7 207 533.3 208 560 206.7C586.7 205.3 613.3 201.7 640 203C666.7 204.3 693.3 210.7 720 211C746.7 211.3 773.3 205.7 800 203C826.7 200.3 853.3 200.7 880 203C906.7 205.3 933.3 209.7 946.7 211.8L960 214L960 301L946.7 301C933.3 301 906.7 301 880 301C853.3 301 826.7 301 800 301C773.3 301 746.7 301 720 301C693.3 301 666.7 301 640 301C613.3 301 586.7 301 560 301C533.3 301 506.7 301 480 301C453.3 301 426.7 301 400 301C373.3 301 346.7 301 320 301C293.3 301 266.7 301 240 301C213.3 301 186.7 301 160 301C133.3 301 106.7 301 80 301C53.3 301 26.7 301 13.3 301L0 301Z" fill="#f360a8"></path><path d="M0 208L13.3 212.3C26.7 216.7 53.3 225.3 80 225.3C106.7 225.3 133.3 216.7 160 214C186.7 211.3 213.3 214.7 240 217.2C266.7 219.7 293.3 221.3 320 222.7C346.7 224 373.3 225 400 227C426.7 229 453.3 232 480 233C506.7 234 533.3 233 560 228.7C586.7 224.3 613.3 216.7 640 215.8C666.7 215 693.3 221 720 221.2C746.7 221.3 773.3 215.7 800 212.3C826.7 209 853.3 208 880 207.7C906.7 207.3 933.3 207.7 946.7 207.8L960 208L960 301L946.7 301C933.3 301 906.7 301 880 301C853.3 301 826.7 301 800 301C773.3 301 746.7 301 720 301C693.3 301 666.7 301 640 301C613.3 301 586.7 301 560 301C533.3 301 506.7 301 480 301C453.3 301 426.7 301 400 301C373.3 301 346.7 301 320 301C293.3 301 266.7 301 240 301C213.3 301 186.7 301 160 301C133.3 301 106.7 301 80 301C53.3 301 26.7 301 13.3 301L0 301Z" fill="#ea59b3"></path><path d="M0 240L13.3 240.3C26.7 240.7 53.3 241.3 80 241C106.7 240.7 133.3 239.3 160 239.5C186.7 239.7 213.3 241.3 240 238.3C266.7 235.3 293.3 227.7 320 226C346.7 224.3 373.3 228.7 400 229C426.7 229.3 453.3 225.7 480 224C506.7 222.3 533.3 222.7 560 223.2C586.7 223.7 613.3 224.3 640 223.8C666.7 223.3 693.3 221.7 720 223.7C746.7 225.7 773.3 231.3 800 234.8C826.7 238.3 853.3 239.7 880 238.3C906.7 237 933.3 233 946.7 231L960 229L960 301L946.7 301C933.3 301 906.7 301 880 301C853.3 301 826.7 301 800 301C773.3 301 746.7 301 720 301C693.3 301 666.7 301 640 301C613.3 301 586.7 301 560 301C533.3 301 506.7 301 480 301C453.3 301 426.7 301 400 301C373.3 301 346.7 301 320 301C293.3 301 266.7 301 240 301C213.3 301 186.7 301 160 301C133.3 301 106.7 301 80 301C53.3 301 26.7 301 13.3 301L0 301Z" fill="#dd55c0"></path><path d="M0 256L13.3 253.8C26.7 251.7 53.3 247.3 80 245.8C106.7 244.3 133.3 245.7 160 246.5C186.7 247.3 213.3 247.7 240 246.3C266.7 245 293.3 242 320 241.2C346.7 240.3 373.3 241.7 400 244.2C426.7 246.7 453.3 250.3 480 252.3C506.7 254.3 533.3 254.7 560 253C586.7 251.3 613.3 247.7 640 246C666.7 244.3 693.3 244.7 720 243.5C746.7 242.3 773.3 239.7 800 238.5C826.7 237.3 853.3 237.7 880 237.3C906.7 237 933.3 236 946.7 235.5L960 235L960 301L946.7 301C933.3 301 906.7 301 880 301C853.3 301 826.7 301 800 301C773.3 301 746.7 301 720 301C693.3 301 666.7 301 640 301C613.3 301 586.7 301 560 301C533.3 301 506.7 301 480 301C453.3 301 426.7 301 400 301C373.3 301 346.7 301 320 301C293.3 301 266.7 301 240 301C213.3 301 186.7 301 160 301C133.3 301 106.7 301 80 301C53.3 301 26.7 301 13.3 301L0 301Z" fill="#cc54cd"></path><path d="M0 252L13.3 251.8C26.7 251.7 53.3 251.3 80 251.3C106.7 251.3 133.3 251.7 160 253.8C186.7 256 213.3 260 240 261.5C266.7 263 293.3 262 320 261.8C346.7 261.7 373.3 262.3 400 262.8C426.7 263.3 453.3 263.7 480 263.8C506.7 264 533.3 264 560 262.5C586.7 261 613.3 258 640 258.5C666.7 259 693.3 263 720 261.8C746.7 260.7 773.3 254.3 800 252.3C826.7 250.3 853.3 252.7 880 255C906.7 257.3 933.3 259.7 946.7 260.8L960 262L960 301L946.7 301C933.3 301 906.7 301 880 301C853.3 301 826.7 301 800 301C773.3 301 746.7 301 720 301C693.3 301 666.7 301 640 301C613.3 301 586.7 301 560 301C533.3 301 506.7 301 480 301C453.3 301 426.7 301 400 301C373.3 301 346.7 301 320 301C293.3 301 266.7 301 240 301C213.3 301 186.7 301 160 301C133.3 301 106.7 301 80 301C53.3 301 26.7 301 13.3 301L0 301Z" fill="#b655da"></path><path d="M0 267L13.3 267C26.7 267 53.3 267 80 267.5C106.7 268 133.3 269 160 269.8C186.7 270.7 213.3 271.3 240 271.7C266.7 272 293.3 272 320 271C346.7 270 373.3 268 400 269C426.7 270 453.3 274 480 274.2C506.7 274.3 533.3 270.7 560 268.8C586.7 267 613.3 267 640 266.2C666.7 265.3 693.3 263.7 720 264C746.7 264.3 773.3 266.7 800 266.7C826.7 266.7 853.3 264.3 880 264.3C906.7 264.3 933.3 266.7 946.7 267.8L960 269L960 301L946.7 301C933.3 301 906.7 301 880 301C853.3 301 826.7 301 800 301C773.3 301 746.7 301 720 301C693.3 301 666.7 301 640 301C613.3 301 586.7 301 560 301C533.3 301 506.7 301 480 301C453.3 301 426.7 301 400 301C373.3 301 346.7 301 320 301C293.3 301 266.7 301 240 301C213.3 301 186.7 301 160 301C133.3 301 106.7 301 80 301C53.3 301 26.7 301 13.3 301L0 301Z" fill="#9958e6"></path><path d="M0 281L13.3 281.2C26.7 281.3 53.3 281.7 80 282C106.7 282.3 133.3 282.7 160 282.2C186.7 281.7 213.3 280.3 240 280.5C266.7 280.7 293.3 282.3 320 283.8C346.7 285.3 373.3 286.7 400 287.2C426.7 287.7 453.3 287.3 480 287.5C506.7 287.7 533.3 288.3 560 286.5C586.7 284.7 613.3 280.3 640 279.5C666.7 278.7 693.3 281.3 720 283C746.7 284.7 773.3 285.3 800 285C826.7 284.7 853.3 283.3 880 282C906.7 280.7 933.3 279.3 946.7 278.7L960 278L960 301L946.7 301C933.3 301 906.7 301 880 301C853.3 301 826.7 301 800 301C773.3 301 746.7 301 720 301C693.3 301 666.7 301 640 301C613.3 301 586.7 301 560 301C533.3 301 506.7 301 480 301C453.3 301 426.7 301 400 301C373.3 301 346.7 301 320 301C293.3 301 266.7 301 240 301C213.3 301 186.7 301 160 301C133.3 301 106.7 301 80 301C53.3 301 26.7 301 13.3 301L0 301Z" fill="#715df2"></path></svg>